<mxfile host="app.diagrams.net" modified="2023-12-20T09:39:13.416Z" agent="Mozilla/5.0 (X11; Linux x86_64; rv:109.0) Gecko/20100101 Firefox/115.0" etag="IVY-Jlb2pMu9qCAXBz7b" version="22.1.11" type="device">
  <diagram name="Página-1" id="-JkIOXFNWmTnDN814xZK">
    <mxGraphModel dx="874" dy="441" grid="1" gridSize="10" guides="1" tooltips="1" connect="1" arrows="1" fold="1" page="1" pageScale="1" pageWidth="1169" pageHeight="827" background="#b6eeb8" math="0" shadow="0">
      <root>
        <mxCell id="0" />
        <mxCell id="1" parent="0" />
        <mxCell id="RwQBTLoRaQF9IXiuYdB_-2" style="edgeStyle=orthogonalEdgeStyle;rounded=0;orthogonalLoop=1;jettySize=auto;html=1;exitX=0.5;exitY=1;exitDx=0;exitDy=0;entryX=0.5;entryY=1;entryDx=0;entryDy=0;" edge="1" parent="1" source="M2E19cieBR7NBifoGKxq-1" target="M2E19cieBR7NBifoGKxq-2">
          <mxGeometry relative="1" as="geometry" />
        </mxCell>
        <mxCell id="M2E19cieBR7NBifoGKxq-1" value="Gestión personal bar" style="ellipse;whiteSpace=wrap;html=1;aspect=fixed;rounded=1;" parent="1" vertex="1">
          <mxGeometry x="520" y="280" width="160" height="160" as="geometry" />
        </mxCell>
        <mxCell id="RwQBTLoRaQF9IXiuYdB_-1" style="edgeStyle=orthogonalEdgeStyle;rounded=0;orthogonalLoop=1;jettySize=auto;html=1;exitX=0.5;exitY=0;exitDx=0;exitDy=0;entryX=0.5;entryY=0;entryDx=0;entryDy=0;" edge="1" parent="1" source="M2E19cieBR7NBifoGKxq-2" target="M2E19cieBR7NBifoGKxq-1">
          <mxGeometry relative="1" as="geometry" />
        </mxCell>
        <mxCell id="M2E19cieBR7NBifoGKxq-2" value="Un bar" style="rounded=1;whiteSpace=wrap;html=1;" parent="1" vertex="1">
          <mxGeometry x="220" y="320" width="120" height="80" as="geometry" />
        </mxCell>
        <mxCell id="M2E19cieBR7NBifoGKxq-6" value="&lt;font style=&quot;font-size: 16px;&quot;&gt;0&lt;/font&gt;" style="text;html=1;strokeColor=none;fillColor=none;align=center;verticalAlign=middle;whiteSpace=wrap;rounded=1;" parent="1" vertex="1">
          <mxGeometry x="585" y="290" width="30" height="20" as="geometry" />
        </mxCell>
        <mxCell id="eTTZJ9YqVXw9v8S5qD4r-5" value="&lt;div style=&quot;font-size: 21px;&quot; align=&quot;center&quot;&gt;&lt;font style=&quot;font-size: 25px;&quot;&gt;&lt;i&gt;&lt;b&gt;Diagrama de contexto&lt;br&gt;&lt;/b&gt;&lt;/i&gt;&lt;/font&gt;&lt;/div&gt;" style="rounded=1;whiteSpace=wrap;html=1;align=left;" parent="1" vertex="1">
          <mxGeometry x="300" y="160" width="280" height="40" as="geometry" />
        </mxCell>
        <mxCell id="eTTZJ9YqVXw9v8S5qD4r-6" value="&lt;font style=&quot;font-size: 10px;&quot;&gt;Datos personal bar&lt;/font&gt;" style="text;html=1;strokeColor=none;fillColor=none;align=center;verticalAlign=middle;whiteSpace=wrap;rounded=1;" parent="1" vertex="1">
          <mxGeometry x="395" y="260" width="90" height="30" as="geometry" />
        </mxCell>
        <mxCell id="RwQBTLoRaQF9IXiuYdB_-3" value="&lt;font style=&quot;font-size: 10px;&quot;&gt;Datos gestión&lt;/font&gt;" style="text;html=1;align=center;verticalAlign=middle;resizable=0;points=[];autosize=1;strokeColor=none;fillColor=none;" vertex="1" parent="1">
          <mxGeometry x="400" y="440" width="80" height="30" as="geometry" />
        </mxCell>
      </root>
    </mxGraphModel>
  </diagram>
</mxfile>
